<svg xmlns="http://www.w3.org/2000/svg" width="805" height="600"><rect width="805" height="600" x="0" y="0" fill="#FFFFFF" id="background"/><g id="viz"><g transform="translate(0,0)"><g transform="translate(50,20)"><g class="bars"><rect id="undefined - Argentina" x="0.9986595174262334" y="48.000000000000014" height="512" width="123.00156389633602" fill="#1f77b4"/><rect id="undefined - Estados Unidos" x="124.99888293118853" y="496" height="64" width="123.00156389633602" fill="#d62728"/><rect id="undefined - Chile" x="372.99932975871315" y="544" height="16" width="123.00156389633602" fill="#2ca02c"/><rect id="undefined - Israel" x="496.99955317247543" y="544" height="16" width="123.00156389633602" fill="#9467bd"/><rect id="undefined - Brasil" x="248.99910634495083" y="528" height="32" width="123.00156389633602" fill="#ff7f0e"/><rect id="undefined - Uruguay" x="620.9997765862377" y="544" height="16" width="123.00156389633602" fill="#8c564b"/></g><g id="xAxis" transform="translate(0,560)" fill="none" font-size="10" font-family="sans-serif" text-anchor="middle"><path class="domain" stroke="currentColor" d="M0.5,0.5H745.5"/><g class="tick" opacity="1" transform="translate(62.499441465594245,0)"><line stroke="currentColor" y2="6"/><text fill="currentColor" y="9" dy="0.71em">Argentina</text></g><g class="tick" opacity="1" transform="translate(186.49966487935654,0)"><line stroke="currentColor" y2="6"/><text fill="currentColor" y="9" dy="0.71em">Estados Unidos</text></g><g class="tick" opacity="1" transform="translate(310.49988829311883,0)"><line stroke="currentColor" y2="6"/><text fill="currentColor" y="9" dy="0.71em">Brasil</text></g><g class="tick" opacity="1" transform="translate(434.50011170688117,0)"><line stroke="currentColor" y2="6"/><text fill="currentColor" y="9" dy="0.71em">Chile</text></g><g class="tick" opacity="1" transform="translate(558.5003351206434,0)"><line stroke="currentColor" y2="6"/><text fill="currentColor" y="9" dy="0.71em">Israel</text></g><g class="tick" opacity="1" transform="translate(682.5005585344056,0)"><line stroke="currentColor" y2="6"/><text fill="currentColor" y="9" dy="0.71em">Uruguay</text></g><text x="745" y="-4" text-anchor="end" style="font-family: Arial, sans-serif; font-size: 12px; fill: rgb(123, 123, 123); font-weight: bold;">País</text></g><g id="yAxis" fill="none" font-size="10" font-family="sans-serif" text-anchor="end"><path class="domain" stroke="currentColor" d="M-6,560.5H0.5V0.5H-6"/><g class="tick" opacity="1" transform="translate(0,560.5)"><line stroke="currentColor" x2="-6"/><text fill="currentColor" x="-9" dy="0.32em">0</text></g><g class="tick" opacity="1" transform="translate(0,480.50000000000006)"><line stroke="currentColor" x2="-6"/><text fill="currentColor" x="-9" dy="0.32em">5</text></g><g class="tick" opacity="1" transform="translate(0,400.5)"><line stroke="currentColor" x2="-6"/><text fill="currentColor" x="-9" dy="0.32em">10</text></g><g class="tick" opacity="1" transform="translate(0,320.5)"><line stroke="currentColor" x2="-6"/><text fill="currentColor" x="-9" dy="0.32em">15</text></g><g class="tick" opacity="1" transform="translate(0,240.50000000000003)"><line stroke="currentColor" x2="-6"/><text fill="currentColor" x="-9" dy="0.32em">20</text></g><g class="tick" opacity="1" transform="translate(0,160.5)"><line stroke="currentColor" x2="-6"/><text fill="currentColor" x="-9" dy="0.32em">25</text></g><g class="tick" opacity="1" transform="translate(0,80.50000000000003)"><line stroke="currentColor" x2="-6"/><text fill="currentColor" x="-9" dy="0.32em">30</text></g><g class="tick" opacity="1" transform="translate(0,0.5)"><line stroke="currentColor" x2="-6"/><text fill="currentColor" x="-9" dy="0.32em">35</text></g><text x="4" text-anchor="start" dominant-baseline="hanging" style="font-family: Arial, sans-serif; font-size: 12px; fill: rgb(123, 123, 123); font-weight: bold;">Cantidad Visitas [sum]</text></g></g><text y="4" x="4" style="font-family: Arial, sans-serif; font-size: 12px; fill: black; font-weight: bold; dominant-baseline: hanging;"/></g></g></svg>