<svg xmlns="http://www.w3.org/2000/svg" width="805" height="600"><rect width="805" height="600" x="0" y="0" fill="#FFFFFF" id="background"/><g id="viz"><g transform="translate(0,0)"><g transform="translate(50,20)"><g class="bars"><rect id="undefined - CABA" x="0.9986595174262334" y="19.999999999999993" height="540" width="61.001452189454874" fill="#ff7f0e"/><rect id="undefined - PBA" x="62.99877122430738" y="500" height="60" width="61.001452189454874" fill="#7f7f7f"/><rect id="undefined - Orlando" x="124.99888293118853" y="520" height="40" width="61.001452189454874" fill="#e377c2"/><rect id="undefined - Vi침a Del Mar" x="186.9989946380697" y="540" height="20" width="61.001452189454874" fill="#cccccc"/><rect id="undefined - Miami" x="248.99910634495083" y="540" height="20" width="61.001452189454874" fill="#9467bd"/><rect id="undefined - Tel Aviv" x="310.999218051832" y="540" height="20" width="61.001452189454874" fill="#cccccc"/><rect id="undefined - Mendoza" x="372.99932975871315" y="540" height="20" width="61.001452189454874" fill="#d62728"/><rect id="undefined - Florian칩polis" x="434.99944146559426" y="540" height="20" width="61.001452189454874" fill="#2ca02c"/><rect id="undefined - Salta" x="496.99955317247543" y="540" height="20" width="61.001452189454874" fill="#17becf"/><rect id="undefined - Brooklyn" x="558.9996648793565" y="540" height="20" width="61.001452189454874" fill="#1f77b4"/><rect id="undefined - Rio De Janeiro" x="620.9997765862377" y="540" height="20" width="61.001452189454874" fill="#bcbd22"/><rect id="undefined - Montevideo" x="682.9998882931188" y="540" height="20" width="61.001452189454874" fill="#8c564b"/></g><g id="xAxis" transform="translate(0,560)" fill="none" font-size="10" font-family="sans-serif" text-anchor="middle"><path class="domain" stroke="currentColor" d="M0.5,0.5H745.5"/><g class="tick" opacity="1" transform="translate(31.49938561215367,0)"><line stroke="currentColor" y2="6"/><text fill="currentColor" y="9" dy="0.71em">CABA</text></g><g class="tick" opacity="1" transform="translate(93.49949731903482,0)"><line stroke="currentColor" y2="6"/><text fill="currentColor" y="9" dy="0.71em">PBA</text></g><g class="tick" opacity="1" transform="translate(155.49960902591596,0)"><line stroke="currentColor" y2="6"/><text fill="currentColor" y="9" dy="0.71em">Orlando</text></g><g class="tick" opacity="1" transform="translate(217.49972073279713,0)"><line stroke="currentColor" y2="6"/><text fill="currentColor" y="9" dy="0.71em">Vi침a Del Mar</text></g><g class="tick" opacity="1" transform="translate(279.49983243967824,0)"><line stroke="currentColor" y2="6"/><text fill="currentColor" y="9" dy="0.71em">Miami</text></g><g class="tick" opacity="1" transform="translate(341.4999441465594,0)"><line stroke="currentColor" y2="6"/><text fill="currentColor" y="9" dy="0.71em">Tel Aviv</text></g><g class="tick" opacity="1" transform="translate(403.5000558534406,0)"><line stroke="currentColor" y2="6"/><text fill="currentColor" y="9" dy="0.71em">Mendoza</text></g><g class="tick" opacity="1" transform="translate(465.5001675603217,0)"><line stroke="currentColor" y2="6"/><text fill="currentColor" y="9" dy="0.71em">Florian칩polis</text></g><g class="tick" opacity="1" transform="translate(527.5002792672028,0)"><line stroke="currentColor" y2="6"/><text fill="currentColor" y="9" dy="0.71em">Salta</text></g><g class="tick" opacity="1" transform="translate(589.5003909740839,0)"><line stroke="currentColor" y2="6"/><text fill="currentColor" y="9" dy="0.71em">Brooklyn</text></g><g class="tick" opacity="1" transform="translate(651.500502680965,0)"><line stroke="currentColor" y2="6"/><text fill="currentColor" y="9" dy="0.71em">Rio De Janeiro</text></g><g class="tick" opacity="1" transform="translate(713.5006143878462,0)"><line stroke="currentColor" y2="6"/><text fill="currentColor" y="9" dy="0.71em">Montevideo</text></g><text x="745" y="-4" text-anchor="end" style="font-family: Arial, sans-serif; font-size: 12px; fill: rgb(123, 123, 123); font-weight: bold;">Ciudad</text></g><g id="yAxis" fill="none" font-size="10" font-family="sans-serif" text-anchor="end"><path class="domain" stroke="currentColor" d="M-6,560.5H0.5V0.5H-6"/><g class="tick" opacity="1" transform="translate(0,560.5)"><line stroke="currentColor" x2="-6"/><text fill="currentColor" x="-9" dy="0.32em">0</text></g><g class="tick" opacity="1" transform="translate(0,520.5)"><line stroke="currentColor" x2="-6"/><text fill="currentColor" x="-9" dy="0.32em">2</text></g><g class="tick" opacity="1" transform="translate(0,480.50000000000006)"><line stroke="currentColor" x2="-6"/><text fill="currentColor" x="-9" dy="0.32em">4</text></g><g class="tick" opacity="1" transform="translate(0,440.5)"><line stroke="currentColor" x2="-6"/><text fill="currentColor" x="-9" dy="0.32em">6</text></g><g class="tick" opacity="1" transform="translate(0,400.5)"><line stroke="currentColor" x2="-6"/><text fill="currentColor" x="-9" dy="0.32em">8</text></g><g class="tick" opacity="1" transform="translate(0,360.49999999999994)"><line stroke="currentColor" x2="-6"/><text fill="currentColor" x="-9" dy="0.32em">10</text></g><g class="tick" opacity="1" transform="translate(0,320.5)"><line stroke="currentColor" x2="-6"/><text fill="currentColor" x="-9" dy="0.32em">12</text></g><g class="tick" opacity="1" transform="translate(0,280.5)"><line stroke="currentColor" x2="-6"/><text fill="currentColor" x="-9" dy="0.32em">14</text></g><g class="tick" opacity="1" transform="translate(0,240.50000000000003)"><line stroke="currentColor" x2="-6"/><text fill="currentColor" x="-9" dy="0.32em">16</text></g><g class="tick" opacity="1" transform="translate(0,200.49999999999997)"><line stroke="currentColor" x2="-6"/><text fill="currentColor" x="-9" dy="0.32em">18</text></g><g class="tick" opacity="1" transform="translate(0,160.5)"><line stroke="currentColor" x2="-6"/><text fill="currentColor" x="-9" dy="0.32em">20</text></g><g class="tick" opacity="1" transform="translate(0,120.50000000000001)"><line stroke="currentColor" x2="-6"/><text fill="currentColor" x="-9" dy="0.32em">22</text></g><g class="tick" opacity="1" transform="translate(0,80.50000000000003)"><line stroke="currentColor" x2="-6"/><text fill="currentColor" x="-9" dy="0.32em">24</text></g><g class="tick" opacity="1" transform="translate(0,40.499999999999986)"><line stroke="currentColor" x2="-6"/><text fill="currentColor" x="-9" dy="0.32em">26</text></g><g class="tick" opacity="1" transform="translate(0,0.5)"><line stroke="currentColor" x2="-6"/><text fill="currentColor" x="-9" dy="0.32em">28</text></g><text x="4" text-anchor="start" dominant-baseline="hanging" style="font-family: Arial, sans-serif; font-size: 12px; fill: rgb(123, 123, 123); font-weight: bold;">Cantidad Visitas [sum]</text></g></g><text y="4" x="4" style="font-family: Arial, sans-serif; font-size: 12px; fill: black; font-weight: bold; dominant-baseline: hanging;"/></g></g></svg>